<?xml version="1.0" encoding="utf-8" ?>
<svg baseProfile="full" height="600px" version="1.1" width="800px" xmlns="http://www.w3.org/2000/svg" xmlns:ev="http://www.w3.org/2001/xml-events" xmlns:xlink="http://www.w3.org/1999/xlink"><defs /><text font-family="Arial" font-size="24" font-weight="bold" text-anchor="middle" x="400" y="30">PCA9685四电机差速控制系统接线图</text><rect fill="#BC1142" height="100" rx="5" ry="5" stroke="#000000" stroke-width="2" width="150" x="50" y="100" /><text font-family="Arial" font-size="12" text-anchor="middle" x="125" y="150">树莓派5</text><text font-family="Consolas" font-size="10" text-anchor="end" x="45" y="65">5V</text><circle cx="50" cy="61" fill="black" r="2" /><text font-family="Consolas" font-size="10" text-anchor="start" x="55" y="65">VCC</text><text font-family="Consolas" font-size="10" text-anchor="end" x="45" y="85">GND</text><circle cx="50" cy="81" fill="black" r="2" /><text font-family="Consolas" font-size="10" text-anchor="start" x="55" y="85">GND</text><text font-family="Consolas" font-size="10" text-anchor="end" x="45" y="105">GPIO 2 (SDA)</text><circle cx="50" cy="101" fill="black" r="2" /><text font-family="Consolas" font-size="10" text-anchor="start" x="55" y="105">I2C SDA</text><text font-family="Consolas" font-size="10" text-anchor="end" x="45" y="125">GPIO 3 (SCL)</text><circle cx="50" cy="121" fill="black" r="2" /><text font-family="Consolas" font-size="10" text-anchor="start" x="55" y="125">I2C SCL</text><text font-family="Consolas" font-size="10" text-anchor="end" x="45" y="145">GPIO 24</text><circle cx="50" cy="141" fill="black" r="2" /><text font-family="Consolas" font-size="10" text-anchor="start" x="55" y="145">D电机 IN2</text><text font-family="Consolas" font-size="10" text-anchor="end" x="45" y="165">GPIO 25</text><circle cx="50" cy="161" fill="black" r="2" /><text font-family="Consolas" font-size="10" text-anchor="start" x="55" y="165">D电机 IN1</text><rect fill="#1B75BB" height="150" rx="5" ry="5" stroke="#000000" stroke-width="2" width="150" x="300" y="100" /><text font-family="Arial" font-size="12" text-anchor="middle" x="375" y="125">PCA9685 PWM控制器</text><text font-family="Consolas" font-size="10" text-anchor="end" x="295" y="140">VCC</text><circle cx="300" cy="136" fill="black" r="2" /><text font-family="Consolas" font-size="10" text-anchor="start" x="305" y="140">电源</text><text font-family="Consolas" font-size="10" text-anchor="end" x="295" y="160">GND</text><circle cx="300" cy="156" fill="black" r="2" /><text font-family="Consolas" font-size="10" text-anchor="start" x="305" y="160">地线</text><text font-family="Consolas" font-size="10" text-anchor="end" x="295" y="180">SDA</text><circle cx="300" cy="176" fill="black" r="2" /><text font-family="Consolas" font-size="10" text-anchor="start" x="305" y="180">I2C数据</text><text font-family="Consolas" font-size="10" text-anchor="end" x="295" y="200">SCL</text><circle cx="300" cy="196" fill="black" r="2" /><text font-family="Consolas" font-size="10" text-anchor="start" x="305" y="200">I2C时钟</text><text font-family="Consolas" font-size="10" text-anchor="end" x="295" y="220">PWM0</text><circle cx="300" cy="216" fill="black" r="2" /><text font-family="Consolas" font-size="10" text-anchor="start" x="305" y="220">A电机 PWM</text><text font-family="Consolas" font-size="10" text-anchor="end" x="295" y="240">PWM1/2</text><circle cx="300" cy="236" fill="black" r="2" /><text font-family="Consolas" font-size="10" text-anchor="start" x="305" y="240">A电机 方向</text><rect fill="#39B54A" height="100" rx="5" ry="5" stroke="#000000" stroke-width="2" width="150" x="300" y="350" /><text font-family="Arial" font-size="12" text-anchor="middle" x="375" y="400">电机驱动板</text><rect fill="#FBB03B" height="50" rx="10" ry="10" stroke="#000000" stroke-width="2" width="100" x="100" y="475" /><text font-family="Arial" font-size="12" text-anchor="middle" x="150" y="500">左前电机 (A)</text><rect fill="#FBB03B" height="50" rx="10" ry="10" stroke="#000000" stroke-width="2" width="100" x="250" y="475" /><text font-family="Arial" font-size="12" text-anchor="middle" x="300" y="500">右前电机 (B)</text><rect fill="#FBB03B" height="50" rx="10" ry="10" stroke="#000000" stroke-width="2" width="100" x="400" y="475" /><text font-family="Arial" font-size="12" text-anchor="middle" x="450" y="500">左后电机 (C)</text><rect fill="#FBB03B" height="50" rx="10" ry="10" stroke="#000000" stroke-width="2" width="100" x="550" y="475" /><text font-family="Arial" font-size="12" text-anchor="middle" x="600" y="500">右后电机 (D)</text><line stroke="#FF5500" stroke-dasharray="5,3" stroke-width="3" x1="200" x2="300" y1="105" y2="180" /><line stroke="#FF5500" stroke-dasharray="5,3" stroke-width="3" x1="200" x2="300" y1="125" y2="200" /><line stroke="#FF0000" stroke-width="3" x1="200" x2="300" y1="65" y2="140" /><line stroke="#000000" stroke-width="3" x1="200" x2="300" y1="85" y2="160" /><line stroke="#00AAFF" stroke-width="2" x1="375" x2="375" y1="250" y2="350" /><line stroke="#000000" stroke-width="2" x1="325" x2="150" y1="450" y2="475" /><line stroke="#000000" stroke-width="2" x1="350" x2="300" y1="450" y2="475" /><line stroke="#000000" stroke-width="2" x1="400" x2="450" y1="450" y2="475" /><line stroke="#7F3F98" stroke-width="2" x1="200" x2="550" y1="145" y2="350" /><line stroke="#7F3F98" stroke-width="2" x1="200" x2="575" y1="165" y2="350" /><line stroke="#00AAFF" stroke-width="2" x1="450" x2="600" y1="200" y2="475" /><line stroke="#FF5500" stroke-dasharray="5,3" stroke-width="2" x1="660" x2="690" y1="100" y2="100" /><text font-family="Arial" font-size="14" x="700" y="105">I2C总线</text><line stroke="#FF0000" stroke-width="2" x1="660" x2="690" y1="130" y2="130" /><text font-family="Arial" font-size="14" x="700" y="135">电源线</text><line stroke="#000000" stroke-width="2" x1="660" x2="690" y1="160" y2="160" /><text font-family="Arial" font-size="14" x="700" y="165">地线</text><line stroke="#00AAFF" stroke-width="2" x1="660" x2="690" y1="190" y2="190" /><text font-family="Arial" font-size="14" x="700" y="195">PWM信号</text><line stroke="#7F3F98" stroke-width="2" x1="660" x2="690" y1="220" y2="220" /><text font-family="Arial" font-size="14" x="700" y="225">GPIO信号</text><line stroke="#000000" stroke-width="2" x1="660" x2="690" y1="250" y2="250" /><text font-family="Arial" font-size="14" x="700" y="255">连接线</text><text font-family="Arial" font-size="14" x="50" y="550">注意：</text><text font-family="Arial" font-size="14" x="50" y="570">1. 图中仅显示主要连接，实际接线请参考文档</text><text font-family="Arial" font-size="14" x="50" y="590">2. 所有模块必须共地</text><text font-family="Arial" font-size="14" x="50" y="610">3. 请确保电源电压符合要求</text><text font-family="Arial" font-size="14" x="50" y="630">4. D电机使用GPIO直连控制方向</text></svg>